<svg width="30" height="44" viewBox="0 0 30 44" fill="none" xmlns="http://www.w3.org/2000/svg">
<path fill-rule="evenodd" clip-rule="evenodd" d="M20.6 0.800049C22.6 0.800049 24.2 2.40005 24.2 4.40005V21.7001C27.5 22.4001 29.2 24.9 29.2 28.3C29.2 36.6 23.8 43.2001 15.7 43.2001C7.30002 43.2001 0.900024 36.4 0.900024 28.3V15.3C0.900024 13.3 2.50002 11.7 4.50002 11.7C5.20002 11.7 5.80003 11.9 6.30003 12.2C6.40003 12.2 6.40002 12.3 6.50002 12.4C7.00002 10.9 8.40002 10 9.90002 10C10.6 10 11.3 10.2 11.9 10.6C12.3 9.00005 13.6 8.00005 15.2 8.00005C15.9 8.00005 16.5 8.20005 17 8.50005V4.40005C17 2.40005 18.6 0.800049 20.6 0.800049ZM22.4 23.3H14.7C13.7 23.3 12.9 24.1 12.9 25.1C12.9 26.1 13.7 26.9 14.7 26.9H23.2C23.7 26.9 24.1 27.3 24.1 27.8C24.1 28.3 23.7 28.7001 23.2 28.7001H14.7C12.7 28.7001 11.1 27.1 11.1 25.1C11.1 25 11.1 24.9 11.1 24.8C10.7 25 10.2 25.1 9.70002 25.1C9.00002 25.1 8.30002 24.9 7.70002 24.5C7.20002 25.9 5.80003 26.9 4.30003 26.9C3.70003 26.9 3.00002 26.7 2.50002 26.4V28.2001C2.50002 35.3 8.20002 41.3 15.6 41.3C22.6 41.3 27.3 35.6001 27.3 28.2001C27.3 25.3001 25.7 23.4 22.4 23.3ZM4.40002 13.4C3.40002 13.4 2.60002 14.2 2.60002 15.2V23.3C2.60002 24.3 3.40002 25.1 4.40002 25.1C5.40002 25.1 6.20002 24.3 6.20002 23.3V15.2C6.20002 14.2 5.30002 13.4 4.40002 13.4ZM9.80003 11.6C8.80003 11.6 8.00002 12.4 8.00002 13.4V21.5C8.00002 21.8 8.10002 22 8.20002 22.2001C8.50002 22.8001 9.00002 23.2001 9.70002 23.2001H9.90002C10.9 23.2001 11.6 22.4 11.7 21.5V21.4V13.3V13.2C11.5 12.4 10.7 11.6 9.80003 11.6ZM20.6 2.60005C19.6 2.60005 18.8 3.40005 18.8 4.40005V21.5H22.4V4.40005V4.30005C22.3 3.40005 21.5 2.60005 20.6 2.60005ZM15.2 9.80005C14.2 9.80005 13.4 10.6 13.4 11.6V19.7001V19.8C13.5 20.6 14.1 21.3 15 21.5C15.2 21.5 15.4 21.5 15.6 21.5C16.5 21.3 17.1 20.6 17.1 19.7001V11.6V11.5C16.9 10.6 16.1 9.80005 15.2 9.80005Z" fill="#E95F7F"/>
</svg>
